<?xml version="1.0" encoding="UTF-8" standalone="no"?>
<!-- Created with Inkscape (http://www.inkscape.org/) -->

<svg
   xmlns:dc="http://purl.org/dc/elements/1.1/"
   xmlns:cc="http://creativecommons.org/ns#"
   xmlns:rdf="http://www.w3.org/1999/02/22-rdf-syntax-ns#"
   xmlns:svg="http://www.w3.org/2000/svg"
   xmlns="http://www.w3.org/2000/svg"
   xmlns:sodipodi="http://sodipodi.sourceforge.net/DTD/sodipodi-0.dtd"
   xmlns:inkscape="http://www.inkscape.org/namespaces/inkscape"
   width="151.54218mm"
   height="151.54164mm"
   viewBox="0 0 151.54218 151.54164"
   version="1.1"
   id="svg13020"
   inkscape:version="0.92.5 (2060ec1f9f, 2020-04-08)"
   sodipodi:docname="PreenhubBadge1.svg">
  <defs
     id="defs13014" />
  <sodipodi:namedview
     id="base"
     pagecolor="#ffffff"
     bordercolor="#666666"
     borderopacity="1.0"
     inkscape:pageopacity="0.0"
     inkscape:pageshadow="2"
     inkscape:zoom="0.98994949"
     inkscape:cx="253.3975"
     inkscape:cy="190.62754"
     inkscape:document-units="mm"
     inkscape:current-layer="layer1"
     showgrid="false"
     fit-margin-top="0"
     fit-margin-left="0"
     fit-margin-right="0"
     fit-margin-bottom="0"
     inkscape:window-width="1920"
     inkscape:window-height="1017"
     inkscape:window-x="-8"
     inkscape:window-y="-8"
     inkscape:window-maximized="1" />
  <metadata
     id="metadata13017">
    <rdf:RDF>
      <cc:Work
         rdf:about="">
        <dc:format>image/svg+xml</dc:format>
        <dc:type
           rdf:resource="http://purl.org/dc/dcmitype/StillImage" />
        <dc:title></dc:title>
      </cc:Work>
    </rdf:RDF>
  </metadata>
  <g
     inkscape:label="Layer 1"
     inkscape:groupmode="layer"
     id="layer1"
     transform="translate(-86.758677,11.604158)">
    <g
       id="g13581">
      <path
         inkscape:export-ydpi="113"
         inkscape:export-xdpi="113"
         sodipodi:nodetypes="ssssssssscsccccccssscscscssccccscccsssscc"
         inkscape:connector-curvature="0"
         id="rect82528"
         d="m 93.321582,-11.604158 c -3.635624,0 -6.562905,2.8798332 -6.562905,6.4574867 V 133.47949 c 0,3.57765 2.927281,6.458 6.562905,6.458 H 231.73846 c 3.63563,0 6.56239,-2.88035 6.56239,-6.458 V -5.1466713 c 0,-3.5776535 -2.92676,-6.4574867 -6.56239,-6.4574867 z m 78.846348,6.000665 c 1.03954,-0.0041 2.02095,0.1716908 2.92282,0.5565564 2.06142,0.8796893 3.45196,2.9296942 3.77652,5.55056427 0.32454,2.62086203 -0.24487,5.87594303 -1.79111,9.89190333 -3.36722,8.74545 -10.2414,18.489115 -14.42754,29.024585 5.40389,-7.15404 13.14842,-15.233483 21.43486,-21.973852 5.91964,-4.815171 12.02236,-8.8876323 17.62994,-11.2799313 5.60757,-2.39231 10.8769,-3.211208 14.87764,-0.798917 2.05389,1.238408 2.8951,3.605371 2.62155,6.0063513 -0.27355,2.40098 -1.4253,5.028562 -3.16725,7.900291 -3.48392,5.74348 -9.4452,12.393086 -16.4822,18.594216 -10.48689,9.241237 -18.05765,19.130478 -21.73821,24.297225 10.49342,-3.881758 19.74365,-5.147265 26.75238,-4.440555 3.99005,0.402328 7.27538,1.375433 9.74617,2.830316 2.4708,1.454883 4.17108,3.466484 4.55114,5.852356 0.33127,2.07949 -0.52347,4.08337 -2.00142,5.741768 -1.47796,1.6584 -3.59022,3.119369 -6.17275,4.546494 -5.16505,2.85424 -12.2632,5.525548 -20.01894,8.307504 -10.82398,3.88252 -17.67488,7.71782 -21.73149,10.14098 3.6797,0.3827 6.569,1.41552 8.46253,3.2737 1.35151,1.32627 2.13083,3.087878 2.23294,4.998148 0.10211,1.91027 -0.4172,3.95451 -1.4888,6.1097 -2.6844,5.39883 -9.19947,10.04188 -17.47697,13.92525 -8.10233,3.80121 -25.10597,8.50261 -33.8248,8.39742 -0.0695,0.006 -0.14004,0.013 -0.20929,0.0186 -7.024,0.56339 -11.47449,-1.257 -11.80135,-5.82497 0,0 10.49523,-28.603758 13.19299,-41.671351 2.72774,-13.212784 3.36477,-25.434068 4.4726,-34.314186 1.98062,-15.876175 9.76785,-30.325089 18.35753,-40.7050083 2.86323,-3.45997 5.82014,-6.47823 8.67648,-8.93382003 2.8909,-2.48530047 5.7346,-4.22171057 8.37158,-5.17643047 1.4833,-0.5370354 2.9159,-0.8396208 4.25245,-0.8449098 z"
         style="opacity:1;fill:#f79817;fill-opacity:1;stroke:none;stroke-width:3.38693094;stroke-linecap:round;stroke-linejoin:round;stroke-miterlimit:4;stroke-dasharray:none;stroke-dashoffset:4.60200024;stroke-opacity:1" />
      <g
         inkscape:export-ydpi="113"
         inkscape:export-xdpi="113"
         style="opacity:0.5;fill:#838383;fill-opacity:1"
         id="g12974"
         transform="translate(337.39919,146.39085)">
        <path
           sodipodi:nodetypes="sssssscsssssscsssssscsssscsssscccsssssscccssssssscsssssssscsss"
           inkscape:connector-curvature="0"
           id="path82532"
           d="m -186.53156,-137.03932 c 2.86323,-3.45997 5.82001,-6.47804 8.67635,-8.93363 2.8909,-2.4853 5.73436,-4.22194 8.37134,-5.17666 2.63698,-0.95473 5.1139,-1.16806 7.17533,-0.28837 2.06142,0.87969 3.45186,2.92975 3.77641,5.55062 0.32454,2.62086 -0.24477,5.87601 -1.79101,9.89197 -3.36722,8.74545 -10.24109,18.48921 -14.42723,29.02468 5.40389,-7.15404 13.14829,-15.23371 21.43473,-21.97408 5.91963,-4.81517 12.02229,-8.88719 17.62987,-11.27949 5.60757,-2.39231 10.87667,-3.21135 14.87741,-0.79906 2.05389,1.23841 2.89519,3.60504 2.62164,6.00602 -0.27355,2.40098 -1.42524,5.02891 -3.16719,7.90064 -3.48392,5.74348 -9.44499,12.39281 -16.48199,18.59394 -10.48689,9.241239 -18.05782,19.130635 -21.73838,24.297382 10.49341,-3.881757 19.74362,-5.147393 26.75235,-4.440683 3.99005,0.402328 7.27557,1.375526 9.74636,2.830408 2.4708,1.454882 4.17074,3.466488 4.55081,5.852361 0.33126,2.079489 -0.52338,4.083371 -2.00133,5.741771 -1.47796,1.6584 -3.59028,3.119311 -6.17281,4.546435 -5.16505,2.85424 -12.26317,5.525829 -20.0189,8.307784 -10.82398,3.882526 -17.67473,7.717559 -21.73134,10.140722 3.6797,0.3827 6.56881,1.415754 8.46234,3.273937 1.35151,1.326268 2.13089,3.087485 2.233,4.997754 0.10211,1.910269 -0.41709,3.954516 -1.48869,6.109708 -2.6844,5.398825 -9.1994,10.042108 -17.47689,13.925483 -8.27748,3.883375 -25.85107,8.709506 -34.384,8.386879 6.0451,-1.40987 25.17427,-7.249503 33.15981,-10.995913 7.98555,-3.746409 14.00006,-8.325439 16.12107,-12.591185 0.91407,-1.838361 1.2736,-3.41098 1.20621,-4.6718 -0.0674,-1.26082 -0.51529,-2.231657 -1.39052,-3.090541 -1.75045,-1.717771 -5.58589,-2.8813 -11.42564,-2.613691 l -5.15947,0.227895 4.28966,-2.87456 c 0,0 10.94836,-7.320434 26.60534,-12.93654 7.72801,-2.772008 14.76892,-5.445672 19.61602,-8.124212 2.42355,-1.339267 4.28549,-2.683706 5.40524,-3.940161 1.11974,-1.256456 1.47971,-2.277818 1.30666,-3.36415 -0.20891,-1.311431 -1.1764,-2.657617 -3.15793,-3.824404 -1.98154,-1.166786 -4.91429,-2.082811 -8.59284,-2.453731 -7.35709,-0.741835 -17.70601,0.665921 -29.67701,5.826381 l -4.27062,1.848602 2.48731,-3.937492 c 0,0 9.63654,-15.200768 24.85156,-28.608519 6.87292,-6.05654 12.68901,-12.59849 15.92498,-17.93322 1.61799,-2.66737 2.57144,-5.04372 2.76521,-6.74443 0.19376,-1.70071 -0.14788,-2.54376 -1.24939,-3.20792 -2.75152,-1.65906 -7.06112,-1.24003 -12.27242,0.9832 -5.2113,2.22324 -11.1625,6.15777 -16.94474,10.86117 -5.65834,4.60263 -11.1697,9.96406 -15.75788,15.12448 -4.78909,5.38639 -8.29898,9.03512 -12.79398,15.400066 1.33066,-7.718426 4.3589,-16.533686 7.84143,-23.037216 3.50757,-6.5503 7.17504,-12.51346 9.2098,-17.79818 1.43946,-3.73861 1.85367,-6.60416 1.6184,-8.50413 -0.23527,-1.89997 -0.94083,-2.77889 -2.04753,-3.25116 -1.10669,-0.47227 -2.86786,-0.45093 -5.0701,0.3464 -2.20224,0.79733 -4.79825,2.34101 -7.48045,4.64689 -10.86704,9.34237 -23.52785,27.60398 -26.0498,47.81936 -1.07087,8.583854 -1.67758,20.734044 -4.38065,34.036461 -2.73755,13.472075 -10.52643,35.125763 -16.13945,41.586458 0,0 10.49565,-28.604009 13.19341,-41.671599 2.72774,-13.212784 3.36455,-25.433668 4.47238,-34.313784 1.98062,-15.876176 9.76807,-30.325426 18.35775,-40.705346 z"
           style="color:#000000;font-style:normal;font-variant:normal;font-weight:normal;font-stretch:normal;font-size:medium;line-height:normal;font-family:Sans;-inkscape-font-specification:Sans;text-indent:0;text-align:start;text-decoration:none;text-decoration-line:none;letter-spacing:normal;word-spacing:normal;text-transform:none;writing-mode:lr-tb;direction:ltr;baseline-shift:baseline;text-anchor:start;display:inline;overflow:visible;visibility:visible;fill:#838383;fill-opacity:1;fill-rule:nonzero;stroke:none;stroke-width:2.87993646;marker:none;enable-background:accumulate" />
        <path
           sodipodi:nodetypes="ssssscsssscssccsscccsssscssssccs"
           inkscape:connector-curvature="0"
           id="path82534"
           d="m -199.59811,-98.214155 c 1.06382,-1.213569 2.1938,-2.265005 3.32946,-3.118175 2.27132,-1.70634 4.63301,-2.71374 6.91348,-2.51322 2.28046,0.20052 4.26464,1.90267 5.06592,4.55614 1.71541,5.680647 -0.37284,14.267707 -2.64423,21.74504 -0.65649,2.16115 -1.25639,3.758728 -1.9022,5.590454 4.51892,-4.710743 8.90224,-7.257787 12.70614,-7.505657 2.67188,-0.174103 5.1269,0.968298 6.48099,3.177153 1.3541,2.208855 1.71494,5.265974 1.12548,9.031914 -1.19025,7.604181 -6.63422,14.664256 -11.6815,19.927266 -2.88653,3.009915 -5.36027,5.157794 -7.2261,6.680557 1.93978,0.556387 3.53212,1.503594 4.61332,2.825111 1.65744,2.025851 2.12125,4.718557 1.56633,7.398 -1.10983,5.358888 -6.07265,10.922473 -14.14958,13.559363 l -1.02404,-1.567953 c 7.26231,-2.370945 11.49824,-8.535485 12.33443,-12.573066 0.41809,-2.01879 0.0839,-3.737067 -0.95391,-5.005586 -1.03784,-1.268519 -2.86987,-2.206743 -5.86396,-2.308332 l -4.18784,-0.144064 3.38534,-2.471351 c 0,0 4.58094,-3.322375 9.43832,-8.387375 4.85737,-5.065 9.87797,-11.867445 10.89812,-18.384973 0.52301,-3.341388 0.11022,-5.703185 -0.72462,-7.065006 -0.83484,-1.361821 -1.98169,-1.940865 -3.82829,-1.820541 -3.69321,0.240653 -10.44497,3.2466 -19.15673,14.257453 0,0 3.17951,-8.739524 5.39949,-16.047592 2.21997,-7.308068 3.89354,-15.935508 2.64174,-20.080881 -0.56414,-1.868174 -1.36831,-2.411434 -2.57115,-2.517204 -1.20284,-0.10576 -3.01519,0.50826 -4.92607,1.943806 -3.82174,2.87111 -7.87631,8.808507 -9.13606,16.17559 l -2.47046,-0.518418 c 1.03962,-6.079711 3.35673,-11.197746 6.54818,-14.838453 z"
           style="color:#000000;font-style:normal;font-variant:normal;font-weight:normal;font-stretch:normal;font-size:medium;line-height:normal;font-family:Sans;-inkscape-font-specification:Sans;text-indent:0;text-align:start;text-decoration:none;text-decoration-line:none;letter-spacing:normal;word-spacing:normal;text-transform:none;writing-mode:lr-tb;direction:ltr;baseline-shift:baseline;text-anchor:start;display:inline;overflow:visible;visibility:visible;fill:#838383;fill-opacity:1;stroke:none;stroke-width:2.87993646;marker:none;enable-background:accumulate" />
      </g>
    </g>
  </g>
</svg>
